<svg width="60" height="110" xmlns="http://www.w3.org/2000/svg">

 <g>
  <title>background</title>
  <rect fill="none" id="canvas_background" height="112" width="62" y="-1" x="-1"/>
 </g>
 <g>
  <title>Layer 1</title>
  <g stroke="null" id="svg_4">
   <path stroke="null" id="svg_3" d="m30.10403,61.24139c15.95361,0 29.64659,-13.3624 29.64659,-29.64659c0,-16.35244 -13.29415,-29.85464 -29.64659,-29.85464s-29.85464,13.5022 -29.85464,29.85464c0,7.30221 2.6838,13.91809 7.11518,19.03623c0.62518,-0.41484 4.44907,-3.92105 11.10946,-6.17898c-3.49497,-3.18311 -5.74187,-7.73932 -5.74187,-12.85725c0,-9.48712 7.88474,-17.16382 17.37186,-17.16382s17.16382,7.6767 17.16382,17.16382c0,9.28926 -7.45617,17.16381 -17.16382,17.16381c-15.58329,0 -29.85464,12.99395 -29.85464,29.6466c0,16.35243 13.5022,29.85464 29.85464,29.85464s29.64659,-13.5022 29.64659,-29.85464c0,-7.30264 -2.6838,-13.91851 -7.11518,-19.03624c-0.62518,0.41484 -4.44907,3.92063 -11.10946,6.17898c3.49497,3.18311 5.74187,7.73932 5.74187,12.85726c0,9.4867 -7.6767,17.37186 -17.16382,17.37186s-17.37186,-7.88516 -17.37186,-17.37186c0,-9.28927 7.66422,-17.16382 17.37186,-17.16382z"/>
  </g>
 </g>
</svg>