<?xml version="1.0" encoding="iso-8859-1"?>
<!-- Generator: Adobe Illustrator 19.0.0, SVG Export Plug-In . SVG Version: 6.00 Build 0)  -->
<svg xmlns="http://www.w3.org/2000/svg" xmlns:xlink="http://www.w3.org/1999/xlink" version="1.1" id="Layer_1" x="0px" y="0px" viewBox="0 0 512 512" style="enable-background:new 0 0 512 512;" xml:space="preserve" width="512" height="512">
<g>
	<path d="M256.5,286c76.683,0,142.5-64.228,142.5-142.5C399,64.9,335.1,0,256.5,0S113,64.9,113,143.5   c0,35.099,12.9,66.899,34.2,91.5c3.005-1.994,21.385-18.847,53.399-29.7C183.8,190,173,168.1,173,143.5   c0-45.601,37.899-82.5,83.5-82.5S339,97.899,339,143.5c0,44.65-35.839,82.5-82.5,82.5C181.597,226,113,288.457,113,368.5   c0,78.6,64.9,143.5,143.5,143.5S399,447.1,399,368.5c0-35.101-12.9-66.901-34.2-91.5c-3.005,1.994-21.385,18.845-53.399,29.7   C328.2,322,339,343.9,339,368.5c0,45.599-36.899,83.5-82.5,83.5S173,414.099,173,368.5C173,323.85,209.839,286,256.5,286z"/>
</g></svg>
