<svg width="115" height="205.00000000000003" xmlns="http://www.w3.org/2000/svg">

 <g>
  <title>background</title>
  <rect fill="none" id="canvas_background" height="207" width="117" y="-1" x="-1"/>
 </g>
 <g>
  <title>Layer 1</title>
  <g stroke="null" id="svg_1">
   <path stroke="null" id="svg_2" d="m57.69755,114c30.29783,0 56.30245,-25.3768 56.30245,-56.30245c0,-31.05524 -25.2472,-56.69755 -56.30245,-56.69755s-56.69755,25.64231 -56.69755,56.69755c0,13.86779 5.09685,26.43212 13.51259,36.1521c1.18729,-0.78784 8.44932,-7.44654 21.09821,-11.73462c-6.63737,-6.0451 -10.9045,-14.6979 -10.9045,-24.41748c0,-18.01718 14.97408,-32.59615 32.99126,-32.59615s32.59615,14.57898 32.59615,32.59615c0,17.64143 -14.16016,32.59615 -32.59615,32.59615c-29.59454,0 -56.69755,24.67707 -56.69755,56.30245c0,31.05524 25.64231,56.69755 56.69755,56.69755s56.30245,-25.64231 56.30245,-56.69755c0,-13.86858 -5.09685,-26.43291 -13.51259,-36.1521c-1.18729,0.78784 -8.44932,7.44575 -21.09821,11.73462c6.63737,6.0451 10.9045,14.6979 10.9045,24.41748c0,18.01639 -14.57898,32.99126 -32.59615,32.99126s-32.99126,-14.97487 -32.99126,-32.99126c0,-17.64143 14.55527,-32.59615 32.99126,-32.59615z"/>
  </g>
 </g>
</svg>